<svg width="394" height="87" viewBox="0 0 394 87" fill="none" xmlns="http://www.w3.org/2000/svg">
<g clip-path="url(#clip0_51_480)">
<path fill-rule="evenodd" clip-rule="evenodd" d="M47.3644 0.237373C38.5067 -0.703844 29.5775 1.14552 21.804 5.53127C14.0305 9.91702 7.79438 16.6239 3.95281 24.7299C0.111241 32.836 -1.1472 41.9433 0.350454 50.8001C1.84811 59.6569 6.02835 67.8284 12.3166 74.1914C18.6048 80.5544 26.6924 84.7965 35.4676 86.3347C44.2428 87.8729 53.2749 86.6316 61.3224 82.7814C69.3699 78.9313 76.0377 72.6613 80.4094 64.8333C84.781 57.0053 86.642 48.0035 85.7363 39.0654C84.7397 29.13 80.3798 19.8445 73.3908 12.7724C66.4017 5.70021 57.2104 1.27342 47.3644 0.237373ZM45.9674 66.502C41.2035 67.1467 36.3591 66.2694 32.115 63.9932C27.8709 61.7171 24.4405 58.1567 22.3059 53.8123C20.1713 49.468 19.4399 44.5581 20.2144 39.7727C20.9889 34.9874 23.2304 30.5671 26.6238 27.1332C30.0173 23.6993 34.3921 21.4243 39.1335 20.6281C43.8748 19.8318 48.7443 20.5543 53.0576 22.694C57.3709 24.8336 60.9111 28.2829 63.1807 32.5571C65.4503 36.8312 66.3352 41.7153 65.711 46.523C65.056 51.5798 62.7667 56.2778 59.1975 59.8896C55.6283 63.5013 50.9783 65.8254 45.9674 66.502ZM108.795 1.95786C107.3 1.96147 105.824 2.30131 104.475 2.95264C103.127 3.60397 101.939 4.55042 100.999 5.7231C100.058 6.89579 99.3887 8.26522 99.039 9.73174C98.6892 11.1983 98.668 12.725 98.9769 14.2008C99.9229 18.9821 104.35 22.2489 109.173 22.2489H137.16L93.6054 80.3924C93.2833 80.8216 93.0861 81.3329 93.0358 81.8689C92.9856 82.4048 93.0844 82.9443 93.321 83.4269C93.5577 83.9094 93.923 84.3159 94.3758 84.6008C94.8287 84.8857 95.3512 85.0377 95.8849 85.0397H164.204C169.024 85.0397 173.454 81.7737 174.4 76.9916C174.709 75.516 174.688 73.9895 174.339 72.5232C173.989 71.0568 173.32 69.6874 172.38 68.5147C171.44 67.3419 170.253 66.3952 168.905 65.7435C167.556 65.0918 166.081 64.7514 164.586 64.747H130.486L174.007 6.64875C174.332 6.21534 174.531 5.69907 174.582 5.15787C174.633 4.61666 174.533 4.07194 174.294 3.5848C174.054 3.09767 173.685 2.6874 173.228 2.40002C172.77 2.11264 172.243 1.95953 171.704 1.95786H108.795ZM381.795 2.19191C379.533 2.73447 377.523 4.03946 376.096 5.89112C374.669 7.74278 373.911 10.0302 373.948 12.3752V46.1592L319.681 2.59596C319.255 2.25519 318.743 2.04253 318.203 1.98245C317.663 1.92236 317.117 2.01729 316.628 2.25632C316.139 2.49535 315.727 2.86876 315.439 3.3336C315.151 3.79844 314.999 4.33582 315 4.88392V74.6404C314.964 76.9855 315.721 79.273 317.148 81.1247C318.575 82.9764 320.586 84.2813 322.848 84.8238C324.316 85.1498 325.839 85.139 327.303 84.7922C328.767 84.4455 330.135 83.7716 331.307 82.8202C332.478 81.8689 333.423 80.6644 334.071 79.2956C334.72 77.9267 335.055 76.4285 335.053 74.9115V40.8351L389.321 84.3992C389.747 84.7398 390.259 84.9523 390.799 85.0123C391.339 85.0723 391.884 84.9774 392.373 84.7385C392.862 84.4996 393.274 84.1263 393.562 83.6617C393.849 83.1971 394.001 82.6599 394 82.112V12.1009C394.002 10.5842 393.666 9.08648 393.017 7.71814C392.368 6.34981 391.424 5.14578 390.252 4.19481C389.081 3.24385 387.713 2.57021 386.249 2.22357C384.786 1.87692 383.263 1.8661 381.795 2.19191ZM240.498 20.3067C263.451 20.3067 280.602 32.5431 280.602 43.4885C280.602 54.434 263.451 66.6704 240.498 66.6704C217.544 66.6704 200.394 54.434 200.394 43.4885C200.394 32.5431 217.544 20.3067 240.498 20.3067ZM240.498 0.016461C207.274 0.016461 180.341 19.4797 180.341 43.4885C180.341 67.4973 207.274 86.9606 240.498 86.9606C273.722 86.9606 300.654 67.4973 300.654 43.4885C300.654 19.4797 273.721 0.016461 240.498 0.016461Z" fill="#0069FF"/>
</g>
<defs>
<clipPath id="clip0_51_480">
<rect width="394" height="87" fill="white"/>
</clipPath>
</defs>
</svg>
