<svg width="407" height="62" viewBox="0 0 407 62" fill="none" xmlns="http://www.w3.org/2000/svg">
<path d="M171.591 18.245C166.951 18.245 162.8 19.6485 159.3 21.9601V0.412783H149.45V40.1225C149.45 52.1758 159.381 61.9174 171.51 61.9174C183.638 61.9174 193.732 52.2583 193.732 40.0399C193.732 27.8216 183.964 18.245 171.591 18.245ZM120.635 18.9055C109.727 19.9787 100.773 29.3076 100.773 40.4527C100.773 52.1758 110.948 62.0826 122.833 62.0826C134.717 62.0826 144.892 52.2583 144.892 40.4527C144.892 35.4168 143.101 30.8762 140.089 27.2437L118.356 0.49534H105.657L120.635 18.9055ZM44.6886 42.9294L35.6532 19.8136H28.7342L19.7802 42.9294L10.7448 19.8136H0L15.7916 60.5965H22.7106L32.2344 36.3249L41.7582 60.5965H48.6772L64.3874 19.8136H53.724L44.6886 42.9294ZM220.431 18.3276C208.14 18.3276 198.209 27.739 198.209 39.7097C198.209 51.5979 206.919 62.0826 219.861 62.0826C227.594 62.0826 233.862 58.3675 238.339 52.0932L230.688 45.9015C228.49 49.8642 224.176 52.1758 219.943 52.1758C214.408 52.1758 208.954 48.2956 208.547 42.5992H240.7V39.6272C240.618 27.0786 232.234 18.3276 220.431 18.3276ZM345.787 18.3276C333.496 18.3276 323.646 27.739 323.646 40.2051C323.646 51.9281 332.356 62 345.217 62C352.95 62 359.218 58.285 363.695 52.0107L356.939 46.3142C354.578 49.9467 350.264 52.0932 345.055 52.0932C339.926 52.0932 334.31 48.2131 333.903 42.5166H365.893V39.1318C365.893 27.0786 357.59 18.3276 345.787 18.3276ZM380.138 31.7017C380.138 29.1425 383.638 27.1611 388.197 27.1611C392.755 27.1611 397.802 29.3901 401.058 33.0226L407 25.8402C401.302 20.8868 395.604 18.3276 388.441 18.3276C379.487 18.3276 370.289 22.3728 370.289 31.7017C370.289 43.1771 380.301 44.0027 388.441 44.6631C392.999 44.9933 397.069 45.3236 397.069 48.2956C397.069 51.5153 392.429 53.0013 388.441 53.0013C383.231 53.0013 378.266 50.6072 374.928 46.5619L368.579 53.249C373.626 59.3582 380.952 62 388.115 62C397.069 62 406.919 57.7896 406.919 48.1305C406.919 37.233 396.825 36.1598 389.092 35.4168C384.127 34.8389 380.138 34.4261 380.138 31.7017ZM255.515 29.0599V19.8136H245.665V60.514H255.515V43.2597C256.817 33.6831 264.55 29.8029 273.504 29.8029V19.8136H272.527C264.957 19.8136 259.422 22.538 255.515 29.0599ZM286.691 29.0599V19.8136H276.841V60.514H286.691V43.2597C287.993 32.4447 297.436 29.8029 304.68 29.8029V19.8136H303.622C296.133 19.8136 290.598 22.4554 286.691 29.0599ZM85.9584 60.514H95.8078V0.49534H85.9584V60.514ZM122.833 52.2583C116.076 52.2583 110.541 46.8921 110.541 40.2051C110.541 33.518 115.995 28.0692 122.751 28.0692C129.426 28.0692 135.124 33.4354 135.124 40.2051C135.124 46.9747 129.67 52.2583 122.833 52.2583ZM171.591 52.2583C164.916 52.2583 159.3 46.9747 159.3 40.1225C159.3 33.2703 164.591 28.0692 171.591 28.0692C178.592 28.0692 183.964 33.4354 183.964 40.1225C183.964 46.8096 178.347 52.2583 171.591 52.2583ZM68.9458 60.514H78.7952V19.8136H68.9458V60.514ZM308.832 60.514H318.681V19.8136H308.832V60.514ZM73.7484 0C69.7598 0 66.4224 3.30226 66.4224 7.43009C66.4224 11.6405 69.9226 14.53 73.7484 14.53C77.9812 14.53 81.2372 10.98 81.2372 7.26498C81.2372 3.46738 77.8184 0 73.7484 0ZM313.716 0C309.727 0 306.308 3.30226 306.308 7.43009C306.308 11.5579 309.564 14.53 313.878 14.53C318.193 14.53 321.123 11.6405 321.123 7.59521C321.123 3.54993 317.786 0 313.716 0ZM335.042 34.4261C336.67 30.3808 340.171 28.0692 345.299 28.0692C350.427 28.0692 353.602 30.5459 354.904 34.4261H335.042ZM209.605 34.4261C211.233 30.3808 214.733 28.0692 219.78 28.0692C224.908 28.0692 228.246 30.5459 229.548 34.4261C229.629 34.4261 209.605 34.4261 209.605 34.4261Z" fill="#E313BF"/>
</svg>
