<svg width="242" height="35" viewBox="0 0 242 35" fill="none" xmlns="http://www.w3.org/2000/svg">
<mask id="mask0_51_482" style="mask-type:luminance" maskUnits="userSpaceOnUse" x="0" y="0" width="36" height="35">
<path d="M0 0H35.5882V35H0V0Z" fill="white"/>
</mask>
<g mask="url(#mask0_51_482)">
<path d="M17.7941 35C27.6215 35 35.5882 27.165 35.5882 17.5C35.5882 7.83502 27.6215 0 17.7941 0C7.9667 0 0 7.83502 0 17.5C0 27.165 7.9667 35 17.7941 35Z" fill="#FF5226"/>
<path d="M20.6768 28.5248V9.7881H18.4419C16.8309 9.7881 15.609 10.1241 14.7787 10.7973C13.9483 11.4459 13.5331 12.3104 13.5331 13.3919C13.5331 14.2086 13.679 14.9051 13.972 15.4814C14.265 16.0578 14.6932 16.5863 15.2544 17.0669C15.8166 17.5476 16.5249 18.0761 17.3802 18.6524L19.5048 20.0571L13.2768 28.5259H8.5863L14.5224 20.5984L17.3066 23.0484L15.1084 21.6788C14.0031 20.9727 12.9502 20.1902 11.9577 19.3373C11.0775 18.5673 10.406 17.7273 9.94221 16.8149C9.47838 15.9014 9.24587 14.8328 9.24587 13.6078C9.24587 11.4938 10.0158 9.7881 11.5544 8.49077C13.1179 7.1701 15.4015 6.50977 18.4051 6.50977H25.0364V28.5248H20.6768Z" fill="white"/>
</g>
<path d="M56.4133 35C46.5968 35 38.6191 27.1845 38.6191 17.5315C38.6191 7.87733 46.5968 0 56.4133 0C66.2285 0 74.2074 7.87733 74.2074 17.5315C74.2074 27.1845 66.2285 35 56.4133 35Z" fill="#FF5226"/>
<path d="M53.6575 2.36816L33.8064 32.8298H42.9063L54.374 15.2715L54.0941 15.1467L50.9148 27.7117L57.6458 28.8783L64.5641 20.3267L64.1893 20.1435L61.8523 29.8572L76.5182 27.1085L73.5264 22.2622L68.2404 23.4522L68.8644 24.158L71.3259 14.0138L65.5914 10.2432L58.0823 19.5298L58.456 19.7142L61.5403 7.54583L53.6575 2.36816Z" fill="#FFDD00"/>
<path d="M53.6575 2.36816L33.8064 32.8298H42.9063L54.374 15.2715L54.0941 15.1467L50.9148 27.7117L57.6458 28.8783L64.5641 20.3267L64.1893 20.1435L61.8523 29.8572L67.7481 28.7523L71.3259 14.0138L65.5914 10.2432L58.0823 19.5298L58.456 19.7142L61.5403 7.54583L53.6575 2.36816Z" fill="#FFDD00"/>
<path d="M81.0285 28.525L92.0929 6.50996H100.519L102.241 19.9138L110.778 6.50879H119.132V28.525H110.962V16.7066L103.377 28.525H95.2069L93.6327 16.5981L87.623 28.525H81.0285ZM144.228 24.1651C144.228 24.9106 144.242 25.6433 144.265 26.3631C144.29 27.0841 144.339 27.7923 144.412 28.4888H136.827C136.647 28.1428 136.5 27.7812 136.388 27.4085C136.239 26.9151 136.141 26.4081 136.095 25.8953C135.314 26.8076 134.324 27.5636 133.127 28.1645C131.955 28.742 130.281 29.0301 128.108 29.0301C125.91 29.0301 124.151 28.525 122.832 27.517C121.537 26.5078 120.891 25.1626 120.891 23.4803C120.891 21.9193 121.342 20.7188 122.246 19.8776C123.174 19.0131 124.615 18.4123 126.57 18.0763C128.523 17.7146 131.026 17.535 134.08 17.535H135.985V17.1383C135.985 16.3706 135.655 15.7815 134.996 15.3731C134.336 14.9648 133.102 14.7606 131.296 14.7606C129.513 14.7606 127.852 14.9893 126.312 15.4455C124.798 15.8771 123.565 16.31 122.612 16.7428V11.914C123.687 11.529 125.128 11.1451 126.936 10.7613C128.768 10.353 130.856 10.1488 133.201 10.1488C135.57 10.1488 137.572 10.3646 139.209 10.7975C140.846 11.2058 142.092 11.914 142.946 12.9231C143.801 13.9078 144.228 15.2775 144.228 17.031V24.1651ZM146.72 10.6901H154.305L154.744 13.7515C155.672 12.551 156.783 11.6748 158.078 11.1218C159.372 10.5688 160.862 10.2935 162.548 10.2935C164.453 10.2935 166.163 10.6295 167.678 11.3015C169.159 11.9464 170.409 13.0137 171.267 14.3651C172.147 15.7336 172.586 17.4638 172.586 19.5533C172.586 21.6428 172.147 23.3846 171.267 24.7776C170.413 26.1473 169.216 27.181 167.678 27.8763C166.138 28.574 164.38 28.9216 162.401 28.9216C160.985 28.9305 159.579 28.6735 158.261 28.1645C156.99 27.6371 155.892 26.8076 154.964 25.6795V33.1741H146.72V10.689V10.6901ZM196.474 19.5533C196.474 17.7753 196.963 16.1898 197.941 14.7968C198.942 13.4038 200.358 12.3118 202.19 11.5185C204.046 10.7018 206.233 10.2935 208.749 10.2935C211.362 10.2935 213.548 10.7368 215.307 11.6258C217.089 12.5148 218.335 13.776 219.043 15.4093C219.776 17.0426 219.874 18.977 219.336 21.2111H204.865C205.158 22.2436 205.806 23.0241 206.807 23.5526C207.833 24.0578 209.347 24.3098 211.349 24.3098C212.742 24.3098 214.036 24.1896 215.233 23.9481C216.359 23.7034 217.472 23.4032 218.568 23.0486V27.3361C217.517 27.8168 216.344 28.2006 215.05 28.4888C213.78 28.777 212.107 28.9216 210.031 28.9216C205.463 28.9216 202.056 28.0933 199.809 26.4355C197.586 24.7543 196.474 22.4606 196.474 19.5533ZM220.033 10.689H240.954V15.302H234.432V28.4888H226.188V15.302H220.033V10.689ZM174.162 10.689H182.405V18.76L190.21 10.689H197.318L190.063 18.1113L198.82 28.4888H188.854L182.405 20.6336V28.4888H174.162V10.689ZM208.786 14.329C207.661 14.329 206.77 14.6533 206.111 15.302C205.451 15.9261 205.024 16.7311 204.828 17.7158H212.082C212.058 16.7311 211.789 15.9261 211.277 15.3008C210.763 14.6533 209.933 14.329 208.786 14.329ZM164.16 19.5533C164.16 18.1113 163.757 16.9703 162.95 16.1303C162.17 15.2658 161.045 14.833 159.58 14.833C158.237 14.833 157.113 15.2413 156.21 16.058C155.306 16.8513 154.854 18.0156 154.854 19.5533C154.854 21.091 155.293 22.2798 156.173 23.121C157.077 23.9376 158.212 24.346 159.58 24.346C161.095 24.346 162.23 23.9131 162.987 23.0486C163.769 22.1841 164.16 21.0186 164.16 19.5533ZM135.985 20.8133H134.117C132.334 20.8133 131.051 20.9591 130.27 21.2473C129.513 21.5355 129.134 22.0873 129.134 22.904C129.134 23.6005 129.379 24.1173 129.866 24.4533C130.38 24.766 130.99 24.9223 131.699 24.9223C132.774 24.9223 133.653 24.7298 134.336 24.346C135.044 23.9376 135.595 23.4686 135.985 22.9401V20.8133Z" fill="black"/>
</svg>
